<?xml version="1.0" encoding="iso-8859-1"?>
<!-- Generator: Adobe Illustrator 19.0.0, SVG Export Plug-In . SVG Version: 6.00 Build 0)  -->
<svg version="1.1" id="Layer_1" xmlns="http://www.w3.org/2000/svg" xmlns:xlink="http://www.w3.org/1999/xlink" x="0px" y="0px"
	 viewBox="0 0 512 512" style="enable-background:new 0 0 512 512;" xml:space="preserve">
<circle style="fill:#324A5E;" cx="256" cy="256" r="256"/>
<path style="fill:#2B3B4E;" d="M275.939,511.233c101.693-7.833,186.742-75.085,220.482-167.091L339.573,186.939l-44.197,43.501
	l-80.748-80.748l-35.5,35.164L150.99,213.94l57.31,58.14L89.385,324.677L275.939,511.233z"/>
<circle style="fill:#FFD300;" cx="182.82" cy="181.7" r="45.304"/>
<path style="fill:#F4A200;" d="M182.813,136.406c-0.219,0-0.434,0.014-0.653,0.017v90.565c0.219,0.003,0.434,0.017,0.653,0.017
	c25.017,0,45.299-20.282,45.299-45.299S207.831,136.406,182.813,136.406z"/>
<path style="fill:#FC6F58;" d="M89.385,324.679c0-51.6,41.829-93.429,93.429-93.429s93.429,41.829,93.429,93.429H89.385z"/>
<path style="fill:#F1543F;" d="M182.813,231.25c-0.219,0-0.434,0.016-0.653,0.017v93.412h94.082
	C276.242,273.079,234.413,231.25,182.813,231.25z"/>
<circle style="fill:#FFD15D;" cx="304.787" cy="215.971" r="45.304"/>
<path style="fill:#F9B54C;" d="M304.793,170.667c-0.079,0-0.157,0.005-0.236,0.005v90.586c0.079,0,0.157,0.005,0.236,0.005
	c25.017,0,45.299-20.282,45.299-45.299C350.092,190.948,329.812,170.667,304.793,170.667z"/>
<path style="fill:#31BAFD;" d="M211.365,358.94c0-51.6,41.829-93.429,93.429-93.429s93.429,41.831,93.429,93.429H211.365z"/>
<path style="fill:#2B9ED8;" d="M304.793,265.511c-0.079,0-0.157,0.005-0.236,0.005v93.424h93.665
	C398.222,307.341,356.393,265.511,304.793,265.511z"/>
<g>
</g>
<g>
</g>
<g>
</g>
<g>
</g>
<g>
</g>
<g>
</g>
<g>
</g>
<g>
</g>
<g>
</g>
<g>
</g>
<g>
</g>
<g>
</g>
<g>
</g>
<g>
</g>
<g>
</g>
</svg>
